# xmcd
#
# Track frame offsets: 
#        150
#        9854
#        22708
#        29412
#        39486
#        60073
#        67522
#        71909
#        82792
#        88095
#        97779
#        108333
#        119197
#        125621
#        129472
#        142265
#        156246
#        167675
#        177223
#        190815
#        205095
#        218729
#        230950
#        241717
#        264399
#        278679
#        292652
#        305606
#        319928
#
# Disc length: 4438 seconds
#
# Revision: 0
# Processed by: cddbd v1.5.2PL0 Copyright (c) Steve Scherf et al.
# Submitted via: ExactAudioCopy v0.99pb4
#
DISCID=8611541d
DTITLE=Huddie `Leadbelly' Ledbetter - The Definitive Leadbelly: 60th A
DTITLE=nniversary Edition - CD1
DYEAR=2009
DGENRE=Blues
TTITLE0=Good Morning Blues
TTITLE1=If It Wasn't For Dicky
TTITLE2=Leavin' In The Morning
TTITLE3=Uncle Sam Says
TTITLE4=Hitler Song
TTITLE5=Laura
TTITLE6=Bring A Little Water, Sylvie
TTITLE7=Jim Crow Blues
TTITLE8=Big Fat Woman
TTITLE9=Black Girl
TTITLE10=The Blood Done Signed My Name
TTITLE11=I've A Pretty Flowers
TTITLE12=Blind Lemon (Memorial Record)
TTITLE13=Leadbelly's Dance
TTITLE14=Frankie and Albert - Part 1
TTITLE15=Frankie and Albert - Part 2
TTITLE16=In The Evenin' When The Sun Goes Down
TTITLE17=Corn Bread Rough
TTITLE18=National Defence
TTITLE19=Easy Rider
TTITLE20=New York City
TTITLE21=Little Sally Walker
TTITLE22=Goodnight, Irene
TTITLE23=Scottsboro Boys
TTITLE24=I'm On My Last Go-Round
TTITLE25=Whoa Back, Buck
TTITLE26=I'm Alone Because I Love You
TTITLE27=It's Tight Like That
TTITLE28=Well You Know I Had To Do It
EXTD=
EXTT0=
EXTT1=
EXTT2=
EXTT3=
EXTT4=
EXTT5=
EXTT6=
EXTT7=
EXTT8=
EXTT9=
EXTT10=
EXTT11=
EXTT12=
EXTT13=
EXTT14=
EXTT15=
EXTT16=
EXTT17=
EXTT18=
EXTT19=
EXTT20=
EXTT21=
EXTT22=
EXTT23=
EXTT24=
EXTT25=
EXTT26=
EXTT27=
EXTT28=
PLAYORDER=
